<?xml version="1.0" encoding="UTF-8" standalone="no"?>
<!-- Created with Inkscape (http://www.inkscape.org/) -->

<svg
   width="256"
   height="256"
   viewBox="0 0 67.733332 67.733333"
   version="1.1"
   id="svg1"
   inkscape:version="1.4.3 (0d15f75042, 2025-12-25)"
   sodipodi:docname="nelius.svg"
   xmlns:inkscape="http://www.inkscape.org/namespaces/inkscape"
   xmlns:sodipodi="http://sodipodi.sourceforge.net/DTD/sodipodi-0.dtd"
   xmlns="http://www.w3.org/2000/svg"
   xmlns:svg="http://www.w3.org/2000/svg">
  <sodipodi:namedview
     id="namedview1"
     pagecolor="#ffffff"
     bordercolor="#000000"
     borderopacity="0.25"
     inkscape:showpageshadow="2"
     inkscape:pageopacity="0.0"
     inkscape:pagecheckerboard="0"
     inkscape:deskcolor="#d1d1d1"
     inkscape:document-units="mm"
     inkscape:zoom="1"
     inkscape:cx="59"
     inkscape:cy="201.5"
     inkscape:window-width="1920"
     inkscape:window-height="1008"
     inkscape:window-x="0"
     inkscape:window-y="0"
     inkscape:window-maximized="1"
     inkscape:current-layer="g3" />
  <defs
     id="defs1" />
  <g
     inkscape:label="Layer 1"
     inkscape:groupmode="layer"
     id="layer1">
    <g
       id="g3"
       transform="matrix(1.3675701,0,0,1.3675701,-16.502185,-13.467802)">
      <g
         id="g4"
         transform="matrix(1.2465974,0,0,1.2465974,-9.0636133,-8.2217976)">
        <path
           d="m 48.203569,48.874409 v -1.299833 c -3.110314,0 -3.435273,-0.789184 -3.435273,-3.38885 v -9.563055 c 0,-5.338599 -1.996171,-8.263223 -6.220628,-8.263223 -2.924624,0 -4.967218,1.671213 -7.474039,3.899498 h -0.18569 l 0.04642,-3.76023 h -1.06772 l -5.89567,1.346255 v 1.346255 c 0,0 0.464226,-0.09285 1.25341,-0.09285 1.25341,0 1.949749,0.371381 1.949749,2.042595 v 13.04475 c 0,2.599666 -0.139268,3.38885 -3.249582,3.38885 v 1.299833 h 10.630775 v -1.299833 c -3.342427,0 -3.528117,-0.789184 -3.528117,-3.38885 V 32.255118 c 1.392678,-1.25341 3.110314,-2.924624 5.617134,-2.924624 2.089017,0 4.27088,0.88203 4.27088,6.452742 v 8.40249 c 0,2.599666 -0.139268,3.38885 -3.435273,3.38885 v 1.299833 z"
           id="text1"
           style="font-size:46.4226px;font-family:STIX;-inkscape-font-specification:STIX;stroke-width:0.322379"
           aria-label="n" />
        <circle
           style="fill:#000000;stroke-width:0.322379"
           id="path1"
           cx="48.056736"
           cy="22.251116"
           r="4.4435735" />
        <path
           style="font-size:4.19093px;font-family:STIX;-inkscape-font-specification:STIX;fill:#f9f9f9;stroke-width:0.55566"
           d="m 46.742775,23.449736 v -0.121537 c -0.301747,0 -0.322702,-0.07544 -0.322702,-0.364611 v -1.018396 c 0.138301,-0.117346 0.310129,-0.259838 0.481957,-0.259838 0.196974,0 0.36042,0.0922 0.36042,0.473575 v 0.804659 c 0,0.255646 -0.01257,0.364611 -0.297556,0.364611 v 0.121537 h 0.94715 v -0.121537 c -0.289174,0 -0.301747,-0.100583 -0.301747,-0.364611 v -0.85495 c 0,-0.507102 -0.213737,-0.691503 -0.54063,-0.691503 -0.222119,0 -0.435857,0.121537 -0.666358,0.347847 h -0.01676 c -0.08382,-0.201165 -0.226311,-0.347847 -0.465194,-0.347847 -0.284983,0 -0.477766,0.155064 -0.704076,0.352038 h -0.01676 V 21.429707 H 45.09993 l -0.523866,0.121537 v 0.121537 c 0,0 0.05029,-0.0084 0.113155,-0.0084 0.117346,0 0.176019,0.03772 0.176019,0.188591 v 1.173461 c 0,0.251456 -0.02934,0.301747 -0.293365,0.301747 v 0.121537 h 0.955532 v -0.121537 c -0.259838,0 -0.31432,-0.05029 -0.31432,-0.284984 v -1.089641 c 0.117346,-0.113155 0.305938,-0.26822 0.523866,-0.26822 0.192783,0 0.335275,0.0922 0.335275,0.44843 v 0.829804 c 0,0.293365 -0.02515,0.364611 -0.322702,0.364611 v 0.121537 z m 2.975557,-0.620258 c -0.188592,0.243074 -0.331084,0.347847 -0.603494,0.347847 -0.431666,0 -0.637021,-0.36042 -0.637021,-0.871713 0,-0.481957 0.205355,-0.733413 0.54482,-0.733413 0.36042,0 0.22212,0.477766 0.532249,0.477766 0.117346,0 0.176019,-0.06705 0.176019,-0.188592 0,-0.243074 -0.243074,-0.444238 -0.637022,-0.444238 -0.603494,0 -0.94715,0.427474 -0.94715,1.08545 0,0.58254 0.31432,0.98906 0.838186,0.98906 0.44843,0 0.653785,-0.264029 0.81304,-0.603494 z"
           id="text2"
           aria-label="mc" />
        <path
           style="font-size:2.2057px;font-family:STIX;-inkscape-font-specification:STIX;fill:#f9f9f9;stroke-width:0.422422"
           d="m 50.845589,20.977827 0.07058,-0.352912 h -0.06397 c -0.05073,0.132342 -0.07941,0.178662 -0.196307,0.178662 h -0.306592 l -0.154399,0.0066 v -0.01103 l 0.291152,-0.275712 c 0.233804,-0.23601 0.359529,-0.388203 0.359529,-0.584511 0,-0.231598 -0.17425,-0.381586 -0.423494,-0.381586 -0.213953,0 -0.363941,0.12352 -0.432317,0.337472 l 0.05294,0.02206 c 0.08161,-0.165427 0.178662,-0.216158 0.322033,-0.216158 0.169839,0 0.275712,0.105873 0.275712,0.271301 0,0.231598 -0.110285,0.370557 -0.328649,0.595539 l -0.335267,0.335266 v 0.07499 z"
           id="text2-3"
           aria-label="2" />
      </g>
    </g>
  </g>
</svg>
